<svg width="512" height="512" viewBox="0 0 512 512" fill="none" xmlns="http://www.w3.org/2000/svg">
  <rect width="512" height="512" rx="96" fill="#0a0a0a"/>
  <g transform="translate(26, 59)">
    <path d="M156.115 371.954C156.115 289.967 155.258 123.214 224.676 123.214C275.351 123.214 287.435 211.336 290.266 291.356" stroke="#ede7d8" stroke-width="22.3586" stroke-linecap="round"/>
    <path d="M425.31 8.62598C436.21 8.62598 444.863 19.2395 449.24 31.2168C452.89 41.2075 448.085 52.9918 438.183 56.877C434.11 58.4748 429.604 58.9326 421.705 58.9326C405.777 58.9326 396.47 54.9019 396.47 38.4375C396.47 21.9732 409.382 8.62623 425.31 8.62598ZM428.88 31.1279C427.386 26.4182 421.402 24.114 415.515 25.9814C409.628 27.8491 406.066 33.1817 407.56 37.8916C409.054 42.6014 419.055 48.3234 424.943 46.4561C430.83 44.5884 430.374 35.8378 428.88 31.1279Z" fill="#ede7d8"/>
    <path d="M290.267 286.23C294.607 353.672 319.354 374.748 361.9 374.748C415.083 374.748 421.594 311.521 423.765 283.42C425.235 264.406 423.765 164.927 423.765 117.624" stroke="#EF2626" stroke-width="22.3586"/>
    <path d="M19.169 374.748C19.169 291.84 18.2996 123.214 88.7191 123.214C159.139 123.214 156.096 290.435 156.096 374.748" stroke="#ede7d8" stroke-width="22.3586" stroke-linecap="square"/>
  </g>
</svg>
